<svg class="svg_nav_white" xmlns="http://www.w3.org/2000/svg" viewBox="0 0 286.054 286.054"><path d="M277.115 160.906h-107.27c-4.943 0-8.94 3.996-8.94 8.94v107.27c0 4.942 3.997 8.938 8.94 8.938h107.27c4.943 0 8.94-3.996 8.94-8.94v-107.27c0-4.942-3.997-8.938-8.94-8.938zm0-160.905h-107.27c-4.943 0-8.94 4.006-8.94 8.94v107.27c0 4.943 3.997 8.94 8.94 8.94h107.27c4.943 0 8.94-3.997 8.94-8.94V8.94c0-4.934-3.997-8.94-8.94-8.94zM116.21 0H8.94C4.004 0 0 4.007 0 8.94v107.27c0 4.943 4.005 8.94 8.94 8.94h107.27c4.933 0 8.938-3.997 8.938-8.94V8.94c0-4.934-4.004-8.94-8.94-8.94zm0 160.906H8.94c-4.935 0-8.94 3.996-8.94 8.94v107.27c0 4.942 4.005 8.938 8.94 8.938h107.27c4.933 0 8.938-3.996 8.938-8.94v-107.27c0-4.942-4.004-8.938-8.94-8.938z"/></svg>