<svg xmlns="http://www.w3.org/2000/svg" viewBox="0 0 59 59"><path d="M29.5 51c.552 0 1-.447 1-1V17c0-.553-.448-1-1-1s-1 .447-1 1v33c0 .553.448 1 1 1zM19.5 51c.552 0 1-.447 1-1V17c0-.553-.448-1-1-1s-1 .447-1 1v33c0 .553.448 1 1 1zM39.5 51c.552 0 1-.447 1-1V17c0-.553-.448-1-1-1s-1 .447-1 1v33c0 .553.448 1 1 1z"/><path d="M52.5 6H38.456c-.11-1.25-.495-3.358-1.813-4.71C35.81.433 34.75 0 33.5 0h-10c-1.252 0-2.31.434-3.144 1.29C19.038 2.64 18.653 4.75 18.543 6H6.5c-.552 0-1 .447-1 1s.448 1 1 1h2.04l1.916 46.02c.037 1.723 1.11 4.98 4.908 4.98h28.272c3.8 0 4.87-3.257 4.907-4.958L50.46 8h2.04c.552 0 1-.447 1-1s-.448-1-1-1zM21.792 2.68C22.24 2.224 22.8 2 23.5 2h10c.7 0 1.26.223 1.707.68.805.824 1.128 2.272 1.24 3.32H20.553c.112-1.048.435-2.496 1.24-3.32zm24.752 51.3c-.006.308-.144 3.02-2.908 3.02H15.364c-2.734 0-2.898-2.717-2.91-3.042L10.543 8h37.915l-1.913 45.98z"/></svg>